<svg width="24" height="24" viewBox="0 0 24 24" fill="none" xmlns="http://www.w3.org/2000/svg">
<path d="M6.96937 7.28054C6.89964 7.21089 6.84432 7.12817 6.80658 7.03712C6.76884 6.94608 6.74941 6.84848 6.74941 6.74992C6.74941 6.65136 6.76884 6.55376 6.80658 6.46271C6.84432 6.37167 6.89964 6.28895 6.96937 6.21929L11.4694 1.71929C11.539 1.64956 11.6217 1.59424 11.7128 1.5565C11.8038 1.51876 11.9014 1.49933 12 1.49933C12.0986 1.49933 12.1962 1.51876 12.2872 1.5565C12.3783 1.59424 12.461 1.64956 12.5306 1.71929L17.0306 6.21929C17.1714 6.36002 17.2504 6.5509 17.2504 6.74992C17.2504 6.94894 17.1714 7.13981 17.0306 7.28054C16.8899 7.42127 16.699 7.50034 16.5 7.50034C16.301 7.50034 16.1101 7.42127 15.9694 7.28054L12.75 4.06023V11.9999C12.75 12.1988 12.671 12.3896 12.5303 12.5302C12.3897 12.6709 12.1989 12.7499 12 12.7499C11.8011 12.7499 11.6103 12.6709 11.4697 12.5302C11.329 12.3896 11.25 12.1988 11.25 11.9999V4.06023L8.03063 7.28054C7.96097 7.35028 7.87825 7.4056 7.78721 7.44334C7.69616 7.48108 7.59856 7.50051 7.5 7.50051C7.40144 7.50051 7.30384 7.48108 7.21279 7.44334C7.12175 7.4056 7.03903 7.35028 6.96937 7.28054ZM22.5 12.7499V18.7499C22.5 19.1477 22.342 19.5293 22.0607 19.8106C21.7794 20.0919 21.3978 20.2499 21 20.2499H3C2.60218 20.2499 2.22064 20.0919 1.93934 19.8106C1.65804 19.5293 1.5 19.1477 1.5 18.7499V12.7499C1.5 12.3521 1.65804 11.9706 1.93934 11.6893C2.22064 11.408 2.60218 11.2499 3 11.2499H9.375C9.47446 11.2499 9.56984 11.2894 9.64017 11.3598C9.71049 11.4301 9.75 11.5255 9.75 11.6249V11.9493C9.75 13.2102 10.7813 14.2734 12.0431 14.2499C12.6324 14.2386 13.1936 13.9966 13.6063 13.5759C14.019 13.1551 14.2501 12.5893 14.25 11.9999V11.6249C14.25 11.5255 14.2895 11.4301 14.3598 11.3598C14.4302 11.2894 14.5255 11.2499 14.625 11.2499H21C21.3978 11.2499 21.7794 11.408 22.0607 11.6893C22.342 11.9706 22.5 12.3521 22.5 12.7499ZM18.75 15.7499C18.75 15.5274 18.684 15.3099 18.5604 15.1249C18.4368 14.9399 18.2611 14.7957 18.0555 14.7106C17.85 14.6254 17.6238 14.6031 17.4055 14.6465C17.1873 14.6899 16.9868 14.7971 16.8295 14.9544C16.6722 15.1118 16.565 15.3122 16.5216 15.5304C16.4782 15.7487 16.5005 15.9749 16.5856 16.1804C16.6708 16.386 16.815 16.5617 17 16.6853C17.185 16.8089 17.4025 16.8749 17.625 16.8749C17.9234 16.8749 18.2095 16.7564 18.4205 16.5454C18.6315 16.3344 18.75 16.0483 18.75 15.7499Z" fill="black"/>
</svg>
