<svg width="24" height="24" viewBox="0 0 24 24" fill="none" xmlns="http://www.w3.org/2000/svg">
<path fill-rule="evenodd" clip-rule="evenodd" d="M7 3C4.79086 3 3 4.79086 3 7V17C3 19.2091 4.79086 21 7 21H17C19.2091 21 21 19.2091 21 17V7C21 4.79086 19.2091 3 17 3H7ZM16.6047 9.91395C16.9024 9.6259 16.9102 9.15109 16.6221 8.85343C16.3341 8.55578 15.8593 8.548 15.5616 8.83605L10.6554 13.584L8.43518 11.4583C8.13599 11.1718 7.66123 11.1821 7.37477 11.4813C7.08831 11.7805 7.09864 12.2553 7.39783 12.5417L10.1395 15.1667C10.4306 15.4455 10.8901 15.4443 11.1797 15.164L16.6047 9.91395Z" fill="#67B34D"/>
</svg>
