<svg width="21" height="20" viewBox="0 0 21 20" fill="none" xmlns="http://www.w3.org/2000/svg">
<path d="M4.25 3C3.78587 3 3.34075 3.18437 3.01256 3.51256C2.68437 3.84075 2.5 4.28587 2.5 4.75V8.01C3.02239 7.67577 3.62984 7.49875 4.25 7.5H16.75C17.394 7.5 17.995 7.688 18.5 8.01V6.75C18.5 6.28587 18.3156 5.84075 17.9874 5.51256C17.6592 5.18437 17.2141 5 16.75 5H11.914C11.8811 5.00006 11.8486 4.99364 11.8182 4.98112C11.7879 4.96859 11.7603 4.9502 11.737 4.927L10.323 3.513C9.99499 3.18476 9.55004 3.00023 9.086 3H4.25ZM4.25 9C3.78587 9 3.34075 9.18437 3.01256 9.51256C2.68437 9.84075 2.5 10.2859 2.5 10.75V15.25C2.5 16.216 3.284 17 4.25 17H16.75C17.2141 17 17.6592 16.8156 17.9874 16.4874C18.3156 16.1592 18.5 15.7141 18.5 15.25V10.75C18.5 10.2859 18.3156 9.84075 17.9874 9.51256C17.6592 9.18437 17.2141 9 16.75 9H4.25Z" fill="white"/>
</svg>
